<svg width="34" height="30" viewBox="0 0 34 30" fill="none" xmlns="http://www.w3.org/2000/svg">
<g clip-path="url(#clip0)">
<g filter="url(#filter0_f)">
<path d="M10.64 3C12.076 3 13.513 3.576 14.624 4.738L16.616 6.826C16.6683 6.88107 16.7313 6.92492 16.8011 6.95488C16.8709 6.98485 16.9461 7.0003 17.022 7.0003C17.098 7.0003 17.1731 6.98485 17.2429 6.95488C17.3127 6.92492 17.3757 6.88107 17.428 6.826L19.411 4.756C21.633 2.43 25.147 2.43 27.369 4.756C29.592 7.082 29.592 10.834 27.369 13.159C23.918 16.771 20.469 20.389 17.018 24L6.66599 13.15C4.44599 10.822 4.44399 7.064 6.66599 4.738C7.77699 3.576 9.206 3 10.641 3H10.64Z"/>
</g>
<path d="M10.64 3C12.076 3 13.513 3.576 14.624 4.738L16.616 6.826C16.6683 6.88107 16.7313 6.92492 16.8011 6.95488C16.8709 6.98485 16.9461 7.0003 17.022 7.0003C17.098 7.0003 17.1731 6.98485 17.2429 6.95488C17.3127 6.92492 17.3757 6.88107 17.428 6.826L19.411 4.756C21.633 2.43 25.147 2.43 27.369 4.756C29.592 7.082 29.592 10.834 27.369 13.159C23.918 16.771 20.469 20.389 17.018 24L6.66599 13.15C4.44599 10.822 4.44399 7.064 6.66599 4.738C7.77699 3.576 9.206 3 10.641 3H10.64Z" stroke="white"/>
</g>
<defs>
<filter id="filter0_f" x="1.00024" y="-1" width="32.036" height="29" filterUnits="userSpaceOnUse" color-interpolation-filters="sRGB">
<feFlood flood-opacity="0" result="BackgroundImageFix"/>
<feBlend mode="normal" in="SourceGraphic" in2="BackgroundImageFix" result="shape"/>
<feGaussianBlur stdDeviation="2" result="effect1_foregroundBlur"/>
</filter>
<clipPath id="clip0">
<rect width="34" height="30" fill="white"/>
</clipPath>
</defs>
</svg>
